<?xml version="1.0" ?><svg height="512" id="svg903" version="1.1" viewBox="0 0 135.46666 135.46667" width="512" xmlns="http://www.w3.org/2000/svg" xmlns:cc="http://creativecommons.org/ns#" xmlns:dc="http://purl.org/dc/elements/1.1/" xmlns:inkscape="http://www.inkscape.org/namespaces/inkscape" xmlns:rdf="http://www.w3.org/1999/02/22-rdf-syntax-ns#" xmlns:sodipodi="http://sodipodi.sourceforge.net/DTD/sodipodi-0.dtd" xmlns:svg="http://www.w3.org/2000/svg"><defs id="defs897"/><g id="layer1"><path d="m 33.159397,123.7425 c -2.1001,-0.96838 -2.7301,-3.39485 -1.8128,-6.98173 0.5128,-2.0052 1.3137,-3.72487 2.05,-4.40182 0.6363,-0.58501 0.6259,-0.53071 -0.1995,1.0394 -1.3436,2.55657 -1.8122,6.44823 -0.9935,8.252 0.4408,0.97136 1.3509,1.53024 2.4852,1.52628 0.8486,-0.002 2.6991,-0.92129 3.9251,-1.94776 2.1626,-1.81067 5.2292,-6.34697 6.7398,-9.96991 0.8951,-2.14674 1.2833,-2.19447 1.7796,-0.21878 0.659,2.62357 1.6353,4.35191 2.2451,3.97496 0.496,-0.30654 0.9196,-1.73286 1.037,-3.49132 0.1131,-1.69388 0.1384,-1.76964 0.4231,-1.27144 0.5023,0.87852 0.3882,2.8941 -0.2417,4.27015 -0.6461,1.41114 -1.2034,1.70675 -2.0468,1.08551 -0.7044,-0.51896 -1.6292,-2.18786 -1.9505,-3.52018 l -0.2473,-1.02526 -1.1948,2.40264 c -0.6572,1.32145 -1.7184,3.16551 -2.3584,4.09789 -1.4946,2.17785 -4.2413,4.93425 -5.6712,5.6913 -1.3304,0.70442 -3.0426,0.91497 -3.9685,0.48803 z m 85.710003,-7.00313 c -4.4208,-1.69703 -8.3386,-5.53545 -10.0993,-9.8943 -0.5666,-1.40267 -0.8406,-3.21535 -0.6195,-4.09651 0.2231,-0.88927 0.4449,-0.63022 0.4829,0.56427 0.066,2.07985 1.3963,4.88158 3.5207,7.41605 2.2578,2.69361 6.216,5.24496 8.1372,5.24496 1.4471,0 1.7636,-0.2588 1.758,-1.43781 -0.011,-2.11844 -1.6653,-4.55868 -7.302,-10.76332 -1.4577,-1.60457 -2.6061,-2.9616 -2.5521,-3.01562 0.054,-0.0542 0.5699,0.1046 1.1464,0.35269 0.704,0.30288 1.2629,0.40804 1.7018,0.32026 0.6017,-0.12035 0.6534,-0.19919 0.6534,-0.99401 0,-0.765252 -0.1237,-0.979522 -1.0894,-1.886112 -0.5992,-0.56253 -1.0326,-1.07964 -0.9631,-1.14907 0.2356,-0.23569 2.077,1.01472 2.4889,1.69017 0.581,0.952982 0.551,2.351302 -0.06,2.779032 -0.2592,0.18143 -0.7467,0.3299 -1.0835,0.3299 -0.575,0 -0.468,0.15039 1.743,2.45026 5.553,5.77634 7.4899,9.65146 5.7803,11.5648 -0.5106,0.57157 -0.7711,0.68207 -1.7482,0.74153 -0.6331,0.0385 -1.4834,-0.0588 -1.8959,-0.21717 z m -99.971303,-0.80786 c -0.6169,-0.61687 -0.2245,-2.03836 2.7685,-10.02838 0.8743,-2.33387 2.617,-6.863392 3.8725,-10.065592 4.1459,-10.57263 11.2807,-29.76635 11.0916,-29.83807 -0.3666,-0.1391 -3.0912,0.87554 -5.3785,2.00299 -5.7206,2.8199 -10.4668,7.27562 -12.8389,12.05329 -1.7284,3.48127 -2.0725,6.40361 -1.0313,8.76085 0.6276,1.42115 1.5811,2.32144 3.298,3.11408 1.6732,0.77255 1.9753,1.17208 1.3549,1.79242 -1.6664,1.66635 -6.0921,-0.16498 -7.6156,-3.15114 -0.2416,-0.47363 -0.5805,-1.46013 -0.7531,-2.19223 -2.6118,-11.07791 12.4385,-25.88572 27.0159,-26.58065 5.3106,-0.25317 9.15,1.50811 10.8602,4.98209 0.6507,1.32173 0.6886,1.52773 0.6886,3.73432 0,1.90161 -0.093,2.61096 -0.5037,3.81876 -0.6929,2.04069 -2.0741,4.79173 -3.3698,6.71173 -3.6151,5.35739 -12.034,11.66743 -15.9904,11.98501 -1.2189,0.0978 -1.4058,0.061 -1.6806,-0.33128 -0.3009,-0.42958 -0.3165,-0.42039 -0.5844,0.34428 -1.4259,4.07018 -6.9385,17.095642 -8.7967,20.785702 -1.0847,2.15386 -1.763,2.74607 -2.4072,2.10182 z m 13.4017,-24.758962 c 6.072,-3.54825 12.3515,-9.84391 14.8928,-14.93114 2.6028,-5.21039 2.2558,-8.38097 -1.1018,-10.06554 -1.4605,-0.73271 -1.5113,-0.74168 -4.2075,-0.74168 h -2.7294 l -0.9143,3.60241 c -1.0434,4.11155 -2.5858,8.83203 -5.4697,16.7406 -1.105,3.03026 -2.0755,5.67646 -2.1569,5.88041 -0.2172,0.5449 0.061,0.46482 1.6868,-0.48506 z m 49.5288,23.099822 c -3.8954,-1.02035 -7.0551,-4.34285 -8.0049,-8.41701 -0.3898,-1.67243 -0.2712,-3.05054 0.3825,-4.44116 0.5835,-1.24123 1.6831,-2.392852 2.2848,-2.392852 0.5305,0 0.5328,-0.0505 -0.102,2.322742 -0.3037,1.13579 -0.3253,1.5511 -0.1265,2.43691 0.7467,3.32912 4.0843,6.29303 7.439,6.60633 3.4787,0.32484 8.9804,-1.84097 13.1489,-5.17622 3.198403,-2.55896 7.353303,-7.838832 10.234103,-13.004682 l 0.787,-1.41132 -2.1881,2.15299 c -3.1725,3.12161 -5.2471,4.22681 -6.896403,3.67387 -1.1908,-0.39928 -1.6179,-1.17446 -1.7051,-3.09452 -0.085,-1.84978 0.2957,-3.51772 1.5899,-6.98371 1.740203,-4.66038 4.642403,-9.92165 5.943203,-10.77396 0.4073,-0.26694 0.5447,-0.2736 0.8261,-0.04 0.5256,0.43619 0.2891,1.24868 -1.7973,6.17393 -2.6672,6.29639 -4.017903,10.54464 -3.677303,11.56642 0.132403,0.39737 2.412503,-1.30934 4.044903,-3.02774 2.4732,-2.60366 6.5031,-8.79958 8.8478,-13.60316 0.9185,-1.88204 1.2813,-2.42577 1.6861,-2.52738 0.8931,-0.22423 1.5792,0.0857 1.9023,0.85915 0.2815,0.67365 0.2381,0.92509 -0.7395,4.28355 -2.433,8.3595 -5.0779,14.21082 -9.2275,20.41446 -4.1569,6.214652 -7.859603,9.721922 -12.928003,12.245642 -3.3639,1.67506 -6.6804,2.60133 -9.2179,2.57456 -0.5245,-0.004 -1.6523,-0.19304 -2.5063,-0.41681 z m 22.505503,-1.12765 c -0.4755,-0.40894 -0.5821,-0.68052 -0.5946,-1.51529 -0.011,-0.63538 0.085,-1.05143 0.2496,-1.10871 0.1755,-0.0609 0.2649,0.13561 0.2649,0.58268 0,0.4811 0.1885,0.85045 0.6581,1.2891 0.754,0.7044 0.9723,0.74263 1.6257,0.28492 0.3884,-0.272 0.4709,-0.27777 0.4709,-0.0327 0,0.98759 -1.7316,1.31143 -2.6746,0.50015 z M 4.2881967,110.65131 c -0.9062,-0.26172 -1.4065,-1.03087 -1.2208,-1.8768 0.304,-1.38399 3.0715,-4.03849 6.0315,-5.78502 0.597,-0.3523 0.8308,-0.59114 0.6357,-0.64924 -0.1698,-0.0506 -0.7355,-0.20851 -1.2571,-0.35082 -1.2582,-0.34354 -2.5481,-1.61281 -2.5481,-2.507532 0,-0.3807 0.2115,-0.89453 0.5118,-1.24339 0.4698,-0.54553 0.6314,-0.59389 1.9603,-0.58634 0.9561,0.004 1.7182003,0.13975 2.2428003,0.39499 0.7777,0.37846 1.1643,0.96829 0.4238,0.64646 -0.204,-0.0886 -1.0148,-0.20488 -1.8018003,-0.25854 -2.3447,-0.15952 -3.1578,0.72998 -1.8426,2.015812 0.61,0.59645 2.3491,1.32523 3.1623003,1.32523 0.2036,0 1.1785,-0.37362 2.167,-0.83025 2.191,-1.012252 5.2416,-1.985552 5.9206,-1.888962 0.3576,0.0509 0.078,0.21331 -0.9834,0.57095 -5.5704,1.877102 -12.3551003,6.309972 -13.5673003,8.864202 -0.3293,0.6941 -0.3299,0.77428 -0.011,1.09567 0.4924,0.49128 2.312,0.40565 4.2021,-0.19757 0.8428,-0.26902 2.8090003,-1.1414 4.3693003,-1.93866 1.5603,-0.79726 2.8799,-1.40657 2.9324,-1.35407 0.053,0.0526 -0.098,0.36525 -0.334,0.69492 -0.6145,0.85751 -0.9533,2.29008 -0.6679,2.82352 0.2779,0.51919 0.2565,0.51893 1.2476,0.0143 0.785,-0.40053 1.9918,-1.5897 2.1959,-2.16399 0.1694,-0.4767 0.4209,-0.0335 0.263,0.46374 -0.1993,0.62796 -1.5262,2.0693 -2.2491,2.44314 -1.7484,0.90415 -2.7991,-0.43542 -1.976,-2.51931 0.1227,-0.31045 -0.052,-0.26035 -0.8895,0.25475 -1.46,0.89842 -3.8600003,1.88872 -5.7461003,2.37111 -1.7518,0.44802 -2.1469,0.46954 -3.1746,0.17274 z m 48.3994003,-0.15055 c -0.3988,-0.44082 -0.4853,-0.89145 -0.097,-0.5025 0.3512,0.35127 1.1237,0.31864 1.4386,-0.0609 0.15,-0.18074 0.2044,-0.54222 0.1278,-0.84764 -0.1579,-0.6297 0.1865,-0.71372 0.5028,-0.12258 0.5231,0.97753 0.016,1.9211 -1.0345,1.9211 -0.3232,0 -0.7455,-0.17436 -0.9384,-0.38751 z m -23.4869,-1.20943 c -0.7959,-0.43217 -0.963,-1.09822 -0.4135,-1.64779 0.2421,-0.24204 0.5079,-0.3723 0.5908,-0.28941 0.082,0.083 0.046,0.25607 -0.083,0.38487 -0.3811,0.38108 -0.057,0.81828 0.6072,0.81828 1.0219,0 2.2098,-0.90459 2.629,-2.00203 0.2026,-0.53058 0.4507,-0.96466 0.5515,-0.96466 0.4878,0 -0.1074,2.02247 -0.8316,2.82254 -0.4138,0.45777 -1.8,1.20787 -2.2085,1.19521 -0.1504,-0.004 -0.529,-0.14723 -0.8415,-0.31701 z m 34.4042,-1.64837 c -0.2534,-0.26976 -0.4608,-0.66781 -0.4608,-0.88458 0,-0.365 0.036,-0.36009 0.4905,0.0666 0.6302,0.59208 1.0236,0.58046 2.0385,-0.0601 0.9918,-0.6261 1.4506,-1.24014 1.6262,-2.17593 0.1463,-0.7798 0.4945,-1.13987 0.5292,-0.54723 0.1,1.70315 -0.3459,2.63161 -1.6649,3.46808 -1.1849,0.7514 -1.9409,0.79078 -2.5587,0.13306 z m -14.3097,-7.15865 c -1.2407,-0.29467 -2.0435,-0.986592 -2.6293,-2.266292 -0.4942,-1.07936 -0.5232,-1.32272 -0.4188,-3.51563 0.1807,-3.79843 1.5998,-7.5564 4.4952,-11.90426 2.4978,-3.75068 5.8951,-6.88361 8.1412,-7.5075 2.5672,-0.71311 4.7987,0.47558 5.2178,2.77949 0.5726,3.14707 -3.6252,9.44343 -7.5263,11.28883 -1.822,0.86192 -3.9592,0.93091 -5.0365,0.16249 l -0.6923,-0.49386 -0.332,0.79466 c -1.0229,2.44826 -1.4813,6.32588 -0.8496,7.18955 0.5594,0.76518 3.3896,0.37047 5.7449,-0.80121 0.8349,-0.4153 2.124,-1.48655 4.7006,-3.90624 1.1162,-1.04831 1.3943,-1.46517 1.8803,-2.81917 2.5813,-7.18954 8.5064,-12.59518 13.4191,-12.24253 0.8414,0.0604 1.7596,0.28298 2.2947,0.55628 0.4907,0.25056 0.9359,0.45555 0.9893,0.45555 0.053,0 0.3179,-0.35758 0.5876,-0.79465 0.7065,-1.14494 1.8854,-2.39832 2.4616,-2.61741 0.5749,-0.21856 1.613,0.22107 1.8247,0.77272 0.2649,0.69018 0.098,1.10911 -1.6849,4.22868 -2.0739,3.62892 -4.0268,7.5595 -4.9627,9.98852 -0.6889,1.78789 -1.2243,4.01081 -1.0162,4.21893 0.2398,0.2399 1.3835,-0.52198 2.6294,-1.75182 0.6852,-0.67631 2.6242,-2.80191 4.3088,-4.72359 3.5552,-4.05549 8.9574,-9.627 11.2315,-11.58381 1.7487,-1.50458 2.3179,-1.63523 3.0184,-0.69262 0.5372,0.723 0.3493,1.15078 -1.4366,3.2694 -1.4939,1.77222 -2.4147,3.43651 -2.4182,4.37074 0,0.30411 0.2851,1.09094 0.636,1.74855 0.9652,1.8088 1.1593,3.0108 0.7466,4.62198 -1.1187,4.36657 -5.7092,7.82492 -10.022,7.5503 -1.2311,-0.0784 -1.443,-0.16019 -1.9859,-0.76796 -1.0004,-1.11964 -0.6334,-2.15689 0.7632,-2.15689 0.9488,0 4.2237,-1.66156 5.5147,-2.79786 1.2534,-1.1034 2.2263,-2.587 2.2263,-3.3953 0,-0.33031 -0.2384,-1.167 -0.5298,-1.85926 -0.2913,-0.69228 -0.5297,-1.45227 -0.5297,-1.6889 0,-0.23656 -0.058,-0.43017 -0.1269,-0.43017 -0.1575,0 -1.9513,1.93818 -5.4913,5.93338 -3.7772,4.26277 -4.9867,5.36216 -6.9977,6.35995 -1.8825,0.93406 -2.3485,1.00371 -3.3947,0.5073 -0.8699,-0.41283 -1.5777,-1.76053 -1.5777,-3.00427 v -0.87705 l -2.278,2.27627 c -2.5907,2.58871 -4.2658,3.63839 -5.8041,3.63706 -1.597,-0.002 -2.9558,-1.20885 -3.2779,-2.91293 -0.1561,-0.82617 -0.2823,-0.84889 -0.9236,-0.16636 -0.7935,0.84458 -4.9368,3.6701 -6.2029,4.23002 -1.0539,0.466142 -1.7145,0.635862 -3.3398,0.858182 -0.2914,0.04 -0.8973,-0.0158 -1.3465,-0.12146 z m 16.3103,-5.735342 c 2.4769,-1.85631 6.0939,-6.14541 9.8848,-11.72201 1.6119,-2.37109 1.6074,-2.39889 -0.3926,-2.4265 -3.7122,-0.0513 -8.7615,5.5547 -10.3887,11.53399 -0.1587,0.58274 -0.2896,1.51249 -0.291,2.0661 0,1.15384 0.2338,1.26312 1.1875,0.54842 z m -10.3941,-8.09822 c 1.8232,-0.84896 3.9273,-3.24396 5.1842,-5.90078 0.7101,-1.501 0.804,-2.38304 0.2755,-2.58586 -0.6702,-0.25718 -2.6594,0.95768 -4.327,2.64264 -1.5651,1.58125 -4.2191,5.23883 -4.2191,5.81435 0,0.67793 1.66,0.69386 3.0864,0.0295 z m 65.465303,-7.90635 c -0.4858,-0.12782 -0.9535,-0.4696 -0.9535,-0.69658 0,-0.0852 0.4723,-0.10937 1.0497,-0.0541 0.9568,0.0919 1.1084,0.0423 1.7101,-0.55934 0.7493,-0.74939 0.7184,-1.24535 -0.1347,-2.1582 -0.2782,-0.29775 -0.506,-0.64976 -0.506,-0.78217 0,-0.40871 0.4113,-0.52054 0.7326,-0.19918 0.8003,0.80036 6.1167,0.57879 7.949,-0.33129 1.9765,-0.98176 1.1892,-2.40185 -2.2148,-3.99431 -3.3457,-1.56523 -9.0079,-2.97533 -12.0467,-3.00011 -1.4484,-0.0111 -1.7838,-0.0673 -1.4833,-0.24533 0.7255,-0.42998 4.4342,-0.2238 7.159,0.39795 6.9402,1.58362 10.4996,3.4995 10.4996,5.65151 0,1.88528 -2.1438,2.83418 -6.3752,2.82199 l -2.6669,-0.007 0.2207,0.58418 c 0.5559,1.47304 -1.2182,3.02587 -2.9394,2.57256 z M 10.406997,72.841678 c -0.8998003,-0.75715 -1.0210003,-1.29155 -0.4344003,-1.9159 0.5878003,-0.62574 1.3201003,-0.74581 0.7575003,-0.12415 -0.4789,0.52913 -0.4403,0.93773 0.1398,1.48271 0.3423,0.32154 0.7583,0.46075 1.3774,0.46075 0.9521,0 1.1912,0.29282 0.4102,0.50214 -0.9326,0.2499 -1.6185,0.12624 -2.2505,-0.4055 z m 59.4487,-1.03596 c -3.2108,-0.86305 -4.6477,-3.94673 -3.1962,-6.85951 2.282,-4.57935 12.0223,-7.79086 25.9596,-8.55917 l 4.576,-0.25225 1.6638,-2.66103 c 2.360903,-3.77616 6.871003,-12.69754 7.633303,-15.09938 0.081,-0.25637 -0.8676,0.88393 -2.1089,2.53391 -2.901,3.85603 -4.985603,6.01024 -6.496803,6.71371 -2.6427,1.23012 -4.4397,0.14928 -4.4397,-2.67024 0,-2.1603 1.8274,-7.639 4.0176,-12.04516 2.3362,-4.69961 3.515703,-6.20416 4.332403,-5.52635 0.6828,0.56668 0.3851,1.72247 -1.942403,7.53949 -1.9961,4.98921 -3.3451,9.42981 -2.8646,9.42981 0.3154,0 3.015803,-2.89497 4.566003,-4.89516 2.3494,-3.03152 5.6746,-7.76333 7.5143,-10.69336 1.9354,-3.08245 2.2333,-3.42017 3.1832,-3.61017 0.8551,-0.17091 1.7484,0.64125 1.7484,1.58988 0,0.91964 -0.8603,3.52138 -2.9145,8.8147 -3.1919,8.22499 -6.1035,14.59009 -8.6231,18.85195 -0.5307,0.89762 -0.9649,1.7072 -0.9649,1.79906 0,0.0919 0.6914,0.23224 1.5363,0.31191 4.2289,0.39882 9.6549,1.41079 12.6877,2.36626 3.0744,0.9686 4.2118,1.72975 4.2118,2.81861 0,0.7538 -0.4639,0.9698 -1.2318,0.57346 -1.8045,-0.93125 -12.931,-2.46377 -17.8207,-2.45454 l -1.820203,0.002 -1.0596,1.53288 c -1.3223,1.9131 -6.5848,7.22639 -8.1953,8.27446 -2.867,1.86571 -4.9197,2.4636 -6.0086,1.75014 -0.9074,-0.5946 -0.6505,-1.3471 0.6971,-2.04166 0.6131,-0.31597 1.6229,-0.96653 2.244,-1.44571 1.7992,-1.38807 7.5545,-7.46188 7.5545,-7.97261 0,-0.22832 -5.0794,0.054 -7.9466,0.44171 -9.6424,1.30388 -16.3595,3.95907 -16.9626,6.70513 -0.1338,0.60865 -0.065,0.75649 0.6398,1.36524 0.7345,0.6349 2.9327,1.55505 3.715,1.55505 0.1883,0 0.5176,0.12829 0.7318,0.28489 0.5276,0.3857 0.2964,1.25981 -0.4194,1.58592 -0.7082,0.32272 -2.8976,0.29384 -4.1967,-0.0552 z m 53.681803,-5.59579 c 0,-0.0978 0.2338,-0.28443 0.5195,-0.4146 1.1407,-0.51972 1.6013,-2.82845 0.593,-2.97168 -0.5953,-0.0845 -0.618,-0.3887 -0.042,-0.57129 0.2557,-0.0811 0.6478,0.002 0.9536,0.20261 1.0081,0.66051 0.552,2.8111 -0.7604,3.5864 -0.6312,0.37282 -1.2631,0.45721 -1.2631,0.16863 z M 18.643797,63.750638 c -0.6913,-0.37764 -1.5292,-1.5243 -1.4426,-1.97408 0.1,-0.51547 1.4037,-1.322 2.138,-1.322 0.8029,0 2.2712,0.43387 2.2712,0.67111 0,0.0992 -0.5216,0.11893 -1.1592,0.0441 -1.2307,-0.14468 -2.2313,0.24229 -2.2313,0.86285 0,0.44332 1.0453,1.60017 1.4493,1.6039 0.3047,0.002 0.3092,0.0308 0.034,0.20878 -0.3988,0.25771 -0.418,0.25598 -1.0595,-0.0943 z M 126.867,60.241078 c 0.1707,-0.65317 -0.3189,-1.59464 -0.9559,-1.83743 -0.504,-0.19214 -0.5266,-0.23794 -0.1882,-0.38302 0.5565,-0.23857 1.3442,0.19531 1.7383,0.95742 0.3126,0.60458 0.3131,0.70495 0,1.1747 -0.4079,0.62264 -0.7526,0.6734 -0.5996,0.0884 z m -96.992003,-1.28548 c -3.2844,-0.85974 -6.5083,-2.87665 -9.3058,-5.82176 -2.4237,-2.55152 -3.1913,-4.78287 -2.041,-5.93317 0.286,-0.28609 0.7391,-0.52007 1.0065,-0.51997 1.2054,0 5.3679,2.51683 9.2707,5.60437 1.1017,0.87164 2.0381,1.54987 2.0808,1.50722 0.042,-0.0425 -0.033,-0.44446 -0.1667,-0.89286 -0.3717,-1.24173 -0.2096,-2.28351 0.3683,-2.36564 0.6526,-0.0927 1.328,1.05155 1.3291,2.25156 0,1.05966 -0.3111,1.02139 -0.5146,-0.0632 -0.077,-0.4092 -0.2204,-0.744 -0.3194,-0.744 -0.2595,0 0.1361,1.58866 0.643,2.58222 0.4761,0.93335 0.4002,1.26317 -0.1779,0.77192 -0.2046,-0.17387 -0.8575,-0.56372 -1.451,-0.86611 -0.5933,-0.3024 -2.289,-1.40977 -3.7682,-2.46081 -1.4792,-1.05108 -3.3776,-2.32624 -4.2188,-2.83371 -2.7154,-1.63813 -3.5425,-1.78574 -3.5425,-0.63228 0,2.2932 4.4921,6.73592 8.9428,8.84454 1.4642,0.69373 4.4414,1.58715 5.2888,1.58715 0.2145,0 0.3899,0.0953 0.3899,0.21194 0,0.3454 -2.1054,0.21993 -3.8141,-0.22743 z m 11.0174,-2.58855 c -1.5001,-0.51798 -2.1962,-1.34924 -2.5476,-3.04197 -0.3236,-1.55903 -0.011,-3.34371 1.0949,-6.16263 0.9093,-2.3268 4.5232,-9.74007 6.834,-14.01851 0.7793,-1.44285 1.3803,-2.66005 1.3355,-2.70486 -0.1293,-0.12925 -2.7727,0.73241 -4.5632,1.48755 -1.8996,0.80111 -3.8404,2.07576 -4.9294,3.23736 -1.1193,1.19389 -1.1521,1.4559 -0.29,2.31797 0.6143,0.61432 0.7035,0.81178 0.5209,1.15308 -0.5273,0.98513 -2.4985,0.68401 -3.5791,-0.54672 -0.548,-0.62414 -0.6554,-0.9222 -0.6554,-1.81953 0,-1.99616 1.2517,-3.67274 4.2286,-5.66396 2.7116,-1.81369 6.7903,-3.32539 12.1942,-4.51946 1.837,-0.40591 2.7706,-0.46966 7.0127,-0.47889 5.1558,-0.0111 5.5957,0.0645 5.5957,0.964 0,0.8512 -0.331,0.94149 -8.1584,2.22491 -1.8648,0.30579 -3.5335,0.63197 -3.7084,0.72486 -0.1748,0.093 -0.4968,0.6783 -0.7156,1.30087 -0.2188,0.62254 -0.9107,2.22 -1.5377,3.54985 -0.6268,1.32986 -1.1125,2.44524 -1.0791,2.47858 0.034,0.0335 0.8833,-0.2696 1.8886,-0.6733 3.7315,-1.49825 6.5296,-1.91048 6.5296,-0.9619 0,0.20965 -0.1669,0.5285 -0.3709,0.70834 -0.5399,0.47608 -6.9244,3.63459 -8.4728,4.19159 -0.7266,0.26142 -1.4014,0.58224 -1.4997,0.713 -0.4206,0.55965 -3.0489,6.591 -3.6365,8.34485 -0.3542,1.05706 -0.6416,2.36444 -0.6416,2.91819 v 1.00321 l 0.8465,-0.11353 c 0.4655,-0.0624 2.158,-0.73317 3.7613,-1.49048 5.0451,-2.38329 7.5388,-2.78926 8.5787,-1.39661 0.5464,0.73207 0.3009,1.16468 -0.8217,1.44734 -0.5259,0.13242 -2.6889,1.13342 -4.8064,2.22437 -5.1562,2.65647 -6.7883,3.16163 -8.4077,2.60243 z m 76.499803,-2.05798 c 0,-0.11653 0.2001,-0.21194 0.4448,-0.21194 0.2447,0 0.774,-0.15628 1.1763,-0.34717 0.5388,-0.25565 0.7149,-0.46332 0.6678,-0.7876 -0.065,-0.44675 -0.4814,-0.61946 -2.1094,-0.87453 -1.3521,-0.21173 -1.1673,-0.61109 1.0486,-2.2662 1.1311,-0.8448 3.4433,-2.9223 5.1383,-4.6166 4.3846,-4.38287 6.3316,-7.41606 6.3431,-9.88175 0.011,-1.32737 -0.4054,-1.7811 -1.6155,-1.7811 -1.3196,0 -2.9409,0.56304 -5.5615,1.93133 -5.2793,2.75652 -11.2314,7.30243 -12.9413,9.88403 -0.4694,0.70877 -0.6436,0.85518 -0.6436,0.54113 0,-1.11067 2.5341,-3.84427 6.2015,-6.68993 l 2.4932,-1.93451 0.4084,-1.38923 c 0.6984,-2.37536 0.7151,-2.52152 0.3524,-3.07496 -0.4608,-0.70326 0,-0.9957 0.5385,-0.3376 0.4755,0.58729 0.5027,1.75507 0.07,2.98333 -0.176,0.49903 -0.2842,0.94333 -0.2402,0.98733 0.044,0.0441 0.8794,-0.41746 1.8564,-1.0255 3.6297,-2.25867 7.1388,-3.32641 8.724,-2.65453 2.1242,0.90036 1.8129,3.94418 -0.8089,7.90862 -1.3793,2.0855 -6.8942,7.74446 -9.16,9.39921 -1.3656,0.99733 -1.5703,1.2709 -0.9519,1.27223 0.5648,0.002 1.6933,0.76372 1.847,1.24801 0.3086,0.97232 -0.8916,1.92978 -2.4191,1.92978 -0.4721,0 -0.8582,-0.0953 -0.8582,-0.21195 z m -56.261203,-0.57595 c -0.8034,-0.19507 -1.8525,-1.18182 -2.2769,-2.14119 -0.3601,-0.8139 -0.4081,-1.25766 -0.3123,-2.88374 0.4618,-7.8361 9.2307,-17.31426 14.431,-15.59805 1.0156,0.33522 1.915,1.10641 2.2592,1.93731 l 0.2759,0.6662 0.6224,-1.24464 c 0.8772,-1.7541 1.3369,-2.19821 2.2752,-2.19821 1.748,0 1.904,1.28226 0.4967,4.08344 -1.2101,2.40897 -2.747,7.00878 -2.9545,8.84307 l -0.1545,1.36543 1.0392,-0.87799 c 1.2991,-1.09747 2.8397,-2.69963 4.4425,-4.61983 1.6878,-2.02208 5.8203,-7.61207 6.5385,-8.8448 1.2509,-2.14668 2.5079,-2.85152 3.3755,-1.89277 0.5192,0.57372 0.4399,1.02508 -0.5088,2.89669 -0.5646,1.11358 -0.9391,2.20975 -1.0913,3.19345 -0.245,1.58453 -0.1697,2.08449 0.9082,6.02483 0.6396,2.33841 0.5033,4.72407 -0.3774,6.60635 -1.1344,2.42398 -3.1557,3.92527 -5.5812,4.14521 -2.1788,0.19757 -3.9418,-1.28372 -3.0846,-2.59192 0.2698,-0.41175 0.5278,-0.53101 1.149,-0.53101 1.7572,0 4.2251,-1.8849 4.6983,-3.58855 0.3326,-1.19719 0.2554,-2.07472 -0.4188,-4.76346 -0.3472,-1.38419 -0.6573,-2.54283 -0.6893,-2.57475 -0.032,-0.0319 -0.5252,0.56806 -1.0963,1.33333 -3.0135,4.03872 -5.0418,6.12797 -7.6923,7.92345 -1.6608,1.12514 -2.5389,1.29868 -3.6537,0.72218 -0.5757,-0.29767 -1.493,-1.80409 -1.4959,-2.45663 0,-0.16728 -0.4015,0.17276 -0.8907,0.75559 -3.8123,4.5424 -7.6841,6.93026 -10.2331,6.31101 z m 2.913,-4.10863 c 2.3532,-1.62614 6.0402,-5.72462 8.5628,-9.51821 1.084,-1.63011 1.1045,-2.03513 0.1605,-3.1572 -1.1232,-1.33481 -3.1117,-0.57511 -5.7859,2.21045 -2.4339,2.53518 -4.0836,5.27893 -4.8064,7.99382 -0.3007,1.12945 -0.4042,2.95684 -0.1802,3.18077 0.193,0.19303 1.2956,-0.18872 2.0493,-0.70963 z m -48.2609,-8.7415 c -0.7386,-0.22243 -0.8476,-0.33543 -0.8476,-0.87806 0,-0.45143 0.1456,-0.69634 0.5298,-0.89067 0.6366,-0.32207 2.8414,-0.37398 2.6488,-0.0624 -0.072,0.11653 -0.2922,0.2124 -0.4893,0.21308 -0.7578,0.002 -1.9476,0.45577 -1.9476,0.74196 0,0.16568 0.3785,0.4128 0.8476,0.55332 0.8601,0.25775 1.1541,0.62414 0.4768,0.59441 -0.204,-0.01 -0.7522,-0.13131 -1.2185,-0.27168 z m 4.2801,-9.9776 c -2.5198,-0.89882 -3.9032,-2.94078 -2.4788,-3.65885 1.502,-0.75718 4.7973,-0.0206 7.2533,1.62265 2.7871,1.86413 3.193,2.78468 0.4671,1.05926 -0.9247,-0.58525 -2.3486,-1.27002 -3.1645,-1.52169 -1.4689,-0.45313 -3.7328,-0.63078 -4.0469,-0.31754 -0.2816,0.28073 0.6256,1.25282 1.775,1.90225 0.7484,0.42283 1.5204,0.66191 2.3927,0.741 0.812,0.0737 1.1841,0.18232 1.0073,0.29457 -0.4284,0.27166 -2.3019,0.20055 -3.2052,-0.12163 z m 15.2934,-3.40446 c -1.0686,-0.58063 -0.9569,-1.28624 0.3069,-1.93977 l 0.6277,-0.32462 -0.8261,-0.36982 c -1.7238,-0.77181 -2.9732,-2.94714 -2.3837,-4.15042 0.5789,-1.18169 1.282,-1.47996 3.4326,-1.45603 1.1985,0.0143 2.2796,0.14879 2.8212,0.35349 l 0.8781,0.3319 -0.1152,-0.86045 c -0.2825,-2.1057 2.113,-3.85043 4.2969,-3.12965 0.9201,0.30367 2.1217,1.31163 2.5493,2.13854 0.4314,0.8342 0.3841,1.95818 -0.1074,2.55144 l -0.4144,0.50027 0.1216,-1.07642 c 0.1125,-0.99495 0.07,-1.136 -0.5706,-1.86498 -1.2642,-1.43987 -2.6536,-1.78195 -3.9723,-0.97798 -1.5351,0.9359 -1.2698,2.76751 0.5994,4.1397 1.1556,0.84817 1.8958,1.76442 1.8958,2.34641 0,0.2947 -0.2062,0.18712 -0.9006,-0.46968 -2.0778,-1.96538 -4.9836,-3.14915 -7.3958,-3.01284 -2.1131,0.1194 -2.7828,0.95467 -1.9919,2.48417 0.3626,0.70121 1.6012,1.83258 2.2219,2.0296 0.2408,0.0764 0.4377,0.27556 0.4377,0.44251 0,0.16705 0.096,0.30358 0.2119,0.30358 0.1166,0 0.2121,0.0953 0.2121,0.21195 0,0.11638 -0.197,0.21194 -0.4379,0.21194 -0.6015,0 -1.2574,0.37894 -1.2574,0.72648 0,0.35081 0.4499,0.53932 1.3417,0.56219 l 0.6714,0.0182 -0.6358,0.29109 c -0.796,0.36456 -0.9298,0.36375 -1.6171,-0.01 z m 38.8989,-0.64598 c -1.9593,-0.96688 -3.2775,-3.00837 -3.7213,-5.76297 -0.7363,-4.57119 2.2601,-9.58794 5.7266,-9.58794 0.2524,0 0.8135,0.14818 1.2468,0.32909 2.5242,1.05441 3.6864,4.02728 3.7019,9.4687 l 0.011,2.91084 0.9547,-0.95464 c 1.0203,-1.02034 1.808,-1.35573 2.3542,-1.00247 0.5093,0.32936 0.3931,1.65808 -0.1999,2.28947 -0.2683,0.28564 -0.5151,0.49217 -0.5484,0.45894 -0.034,-0.0332 0.082,-0.47415 0.2564,-0.9798 0.1741,-0.50564 0.2615,-0.97453 0.1942,-1.04196 -0.349,-0.34893 -2.9702,1.80292 -3.617,2.96934 -0.1282,0.23117 -0.2055,-0.99309 -0.2213,-3.49646 -0.026,-4.2535 -0.3971,-6.29693 -1.4762,-8.1383 -1.3352,-2.27812 -3.6311,-2.34889 -5.5481,-0.17114 -1.6233,1.8442 -2.2907,4.74789 -1.75,7.61358 0.4215,2.2339 1.5303,3.76232 3.7349,5.1485 0.3897,0.24508 0.3891,0.25268 -0.023,0.26008 -0.2332,0.004 -0.716,-0.13658 -1.0734,-0.31288 z m 24.277,-2.73728 c 0,-0.0552 0.1903,-0.41306 0.423,-0.79469 0.4983,-0.81725 0.5432,-1.49709 0.122,-1.84665 -0.3929,-0.32602 -1.4516,0.19257 -1.9519,0.95623 -0.2204,0.33631 -0.426,0.46164 -0.5514,0.33621 -0.4937,-0.4937 1.3776,-2.3646 2.3652,-2.3646 0.6849,0 1.288303,0.726 1.288303,1.55002 0,0.53847 -1.131503,2.26429 -1.484603,2.26429 -0.1158,0 -0.2106,-0.0453 -0.2106,-0.1007 z" id="path883" style="fill:#888888;stroke-width:0.211907"/></g></svg>