<svg id="Layer_1" version="1.1" viewBox="0 0 512 512" xml:space="preserve" xmlns="http://www.w3.org/2000/svg" enable-background="new 0 0 512 512"><circle cx="80.7" cy="256" r="49.7" fill="#2b79c2" class="fill-2b79c2"></circle><circle cx="431.3" cy="256" r="49.7" fill="#2b79c2" class="fill-2b79c2"></circle><path d="M431.3 371.8c-24.7 0-45.3 18.1-49.1 41.8H305.2c-3.8-23.7-24.3-41.8-49.1-41.8s-45.3 18.1-49.1 41.8H130c-1.2-7.3-3.9-14.1-7.9-19.9.2-.1.3-.3.5-.4l103-97.3.5-.5c8.4 6.4 18.8 10.2 30.2 10.2 27.5 0 49.7-22.3 49.7-49.7 0-10.3-3.2-19.9-8.6-27.9.2-.1.3-.3.5-.4l103-97.3.5-.5c8.4 6.4 18.8 10.2 30.2 10.2 27.5 0 49.7-22.3 49.7-49.7S459 40.7 431.6 40.7c-24.7 0-45.3 18.1-49.1 41.8H305.5c-3.8-23.7-24.3-41.8-49.1-41.8s-45.3 18.1-49.1 41.8H130.3c-3.8-23.7-24.3-41.8-49.1-41.8C53.3 40.7 31 63 31 90.4c0 27.5 22.3 49.7 49.7 49.7 24.7 0 45.3-18.1 49.1-41.8H206.8c3.8 23.7 24.3 41.8 49.1 41.8S301.2 122 305 98.3H382c1.2 7.3 3.9 14.1 7.9 19.9-.2.1-.3.3-.5.4l-103 97.3-.5.5c-8.4-6.4-18.8-10.2-30.2-10.2-27.5 0-49.7 22.3-49.7 49.7 0 10.3 3.2 19.9 8.6 27.9-.2.1-.3.3-.5.4l-103 97.3-.5.5c-8.4-6.4-18.8-10.2-30.2-10.2-27.5 0-49.7 22.3-49.7 49.7s22.3 49.7 49.7 49.7c24.7 0 45.3-18.1 49.1-41.8H206.5c3.8 23.7 24.3 41.8 49.1 41.8s45.3-18.1 49.1-41.8H381.7c3.8 23.7 24.3 41.8 49.1 41.8 27.5 0 49.7-22.3 49.7-49.7s-21.8-49.7-49.2-49.7z" fill="#78838f" class="fill-3b4652"></path></svg>